<svg xmlns="http://www.w3.org/2000/svg" viewBox="0 0 1366 348"><path d="M185.5 22c-26.3 0-51 6.6-72.7 18.1v165.4l44.7-54h23l-39 46 44 73h-24l-34-59-15 16v43h-20V53.1C55.1 81.3 31 126.1 31 176.5 31 261.8 100.2 331 185.5 331S340 261.8 340 176.5 270.8 22 185.5 22zM232 256c24 0 24-25 24-25h21s0 42-45 42c-51 0-48-60-48-60v-3s-3-60 48-60c45 0 45 42 45 42h-21s0-25-24-25-28 27-28 43v3c0 16 4 43 28 43zM429.5 86.5v41l36-41h25l-34 37 36 56h-24l-25-43-14 15v28h-19v-93h19zm87.8 26.4v9.2h.4c2.3-3.8 5.3-6.6 9-8.4 3.7-1.7 7.4-2.6 11.3-2.6 4.9 0 8.9.7 12 2s5.6 3.2 7.4 5.5 3.1 5.2 3.8 8.6c.7 3.4 1.1 7.1 1.1 11.2V179h-18.2v-37.4c0-5.5-.9-9.5-2.6-12.2s-4.7-4-9.1-4c-5 0-8.5 1.5-10.8 4.4-2.2 2.9-3.3 7.8-3.3 14.5V179l-16.6.5v-67l15.6.4zm59.2 18.7c1.6-4.3 3.9-8 6.9-11s6.6-5.4 10.8-7c4.2-1.7 8.9-2.5 14.1-2.5s9.9.8 14.1 2.5 7.8 4 10.8 7 5.3 6.7 6.9 11 2.4 9.1 2.4 14.4-.8 10.1-2.4 14.3c-1.6 4.3-3.9 7.9-6.9 10.9s-6.6 5.4-10.8 7-8.9 2.4-14.1 2.4-9.9-.8-14.1-2.4-7.8-3.9-10.8-7c-3-3-5.3-6.7-6.9-10.9-1.6-4.3-2.4-9-2.4-14.3s.8-10.1 2.4-14.4zm16.6 22.2c.5 2.5 1.4 4.8 2.6 6.8s2.9 3.6 4.9 4.8 4.6 1.8 7.7 1.8 5.7-.6 7.7-1.8c2.1-1.2 3.8-2.8 5-4.8s2.1-4.3 2.6-6.8.8-5.1.8-7.7-.3-5.2-.8-7.8-1.4-4.8-2.6-6.8-2.9-3.6-5-4.8-4.7-1.9-7.7-1.9c-3.1 0-5.6.6-7.7 1.9-2 1.2-3.7 2.8-4.9 4.8s-2.1 4.2-2.6 6.8-.8 5.2-.8 7.8.2 5.1.8 7.7zm115.4 25.7l-11.7-45h-.3l-11.1 45h-18l-19-66.6 16-.4 12 45 12-45h17l11.6 44h.3l11.2-44h18l-21 67h-17zm66.3-91.9V179h-18.2V87.6h18.2zm36.1 75.6c2.7 2.6 6.7 4 11.8 4 3.7 0 6.8-.9 9.5-2.8 2.6-1.8 4.3-3.8 4.9-5.8l14.5 2.9c-2.6 7.9-5 10.7-10.3 14.1s-11.7 5.1-19.2 5.1c-5.2 0-9.9-.8-14.1-2.5s-7.7-4-10.6-7.1-5.1-6.7-6.7-11-2.4-9-2.4-14.1c0-4.9.8-9.6 2.4-13.8 1.6-4.3 3.9-8 6.9-11.1s6.5-5.6 10.7-7.4c4.1-1.8 8.7-2.7 13.8-2.7 5.6 0 10.5 1.1 14.7 3.3s7.6 5.1 10.3 8.8 4.6 7.9 5.8 12.5c1.2 4.7 1.6 9.6 1.3 14.7h-47.7c.1 6 1.6 10.2 4.4 12.9zm20.5-34.9c-2.2-2.4-5.5-3.6-9.9-3.6-2.9 0-5.3.5-7.2 1.5s-3.5 2.2-4.6 3.6c-1.2 1.5-2 3-2.4 4.6-.5 1.6-.7 3.1-.8 4.4H836c-.9-4.6-2.4-8.1-4.6-10.5zm81.7 42.3c-2.1 3.6-4.9 6.2-8.4 7.7s-7.4 2.4-11.7 2.4c-5 0-9.3-1-13.1-2.9s-6.8-4.5-9.3-7.8c-2.4-3.3-4.3-7.1-5.5-11.3-1.2-4.3-1.9-8.7-1.9-13.3 0-4.4.6-8.7 1.9-12.9 1.2-4.1 3.1-7.8 5.5-10.9 2.4-3.2 5.5-5.7 9.2-7.6s7.9-2.9 12.8-2.9c3.9 0 7.7.8 11.2 2.5s6.3 4.1 8.4 7.4h.3V87.6h18.2V179h-17.3v-8.4h-.3zm-.7-32.7c-.5-2.5-1.4-4.7-2.6-6.7-1.2-1.9-2.8-3.5-4.8-4.7s-4.4-1.8-7.4-1.8-5.5.6-7.6 1.8c-2 1.2-3.7 2.8-4.9 4.7-1.2 2-2.1 4.2-2.7 6.7s-.8 5.1-.8 7.9c0 2.6.3 5.1.9 7.7s1.6 4.8 2.9 6.8 3 3.6 5 4.9c2 1.2 4.4 1.9 7.2 1.9 3 0 5.5-.6 7.5-1.8s3.6-2.8 4.8-4.8 2-4.3 2.6-6.8c.5-2.6.8-5.2.8-7.9-.2-2.8-.4-5.4-.9-7.9zm94.8 48c-.7 3.4-2.3 6.6-4.7 9.5s-5.8 5.4-10.4 7.5c-4.5 2-10.6 3.1-18.2 3.1-3.2 0-6.5-.4-9.9-1.2s-6.4-2.1-9.2-3.8-5.1-3.9-6.9-6.6-2.9-5.9-3.1-9.7l18.7 2.8c1 2 3 4 4.3 4.4 2.7.7 5.3 2 8.6 2 5.1 0 8.9-1.5 11.2-4.6s3.5-9 3.4-13.6V167h-.3c-2 3.5-4.8 6.1-8.4 7.7-3.6 1.7-7.4 2.5-11.5 2.5-5 0-9.2-.9-12.8-2.6s-6.5-4.1-8.8-7.2c-2.3-3-4-6.6-5.1-10.6-1.1-4.1-1.6-8.3-1.6-12.9 0-4.3.6-8.4 1.9-12.4 1.2-4 3-7.5 5.4-10.5s5.4-5.4 8.9-7.2 7.6-2.7 12.2-2.7c4.4 0 8.2.8 11.5 2.4s6 4.4 8.3 8.2h.3v-8.8h17.3v62c0 2.6-.4 7.6-1.1 11zm-24.9-24c2-1 3.6-2.4 4.9-4.1s2.2-3.6 2.9-5.8c.6-2.2 1-4.5 1-6.8 0-2.7-.3-5.3-.8-7.7s-1.4-4.6-2.6-6.5-2.8-3.4-4.7-4.5c-2-1.1-4.4-1.7-7.4-1.7-2.6 0-4.8.5-6.6 1.5s-3.4 2.4-4.6 4.2-2.1 3.8-2.7 6c-.6 2.3-.8 4.6-.8 7.1 0 2.4.2 4.8.7 7.1s1.3 4.5 2.4 6.3c1.2 1.9 2.7 3.4 4.5 4.6 1.9 1.2 4.2 1.8 7 1.8 2.6 0 4.8-.5 6.8-1.5zm62.3 1.3c2.7 2.6 6.7 4 11.8 4 3.7 0 6.8-.9 9.5-2.8 2.6-1.8 4.3-3.8 4.9-5.8l14.8 2.9c-2.6 7.9-5.3 10.7-10.6 14.1s-11.7 5.1-19.2 5.1c-5.2 0-9.9-.8-14.1-2.5s-7.7-4-10.6-7.1-5.1-6.7-6.7-11-2.4-9-2.4-14.1c0-4.9.8-9.6 2.4-13.8 1.6-4.3 3.9-8 6.9-11.1s6.5-5.6 10.7-7.4c4.1-1.8 8.7-2.7 13.8-2.7 5.6 0 10.5 1.1 14.7 3.3s7.6 5.1 10.3 8.8 4.6 7.9 5.8 12.5c1.2 4.7 1.6 9.6 1.3 14.7h-47.7c.2 6 1.7 10.2 4.4 12.9zm20.5-34.9c-2.2-2.4-5.5-3.6-9.9-3.6-2.9 0-5.3.5-7.2 1.5s-3.5 2.2-4.6 3.6c-1.2 1.5-2 3-2.4 4.6-.5 1.6-.7 3.1-.8 4.4h29.6c-1-4.6-2.5-8.1-4.7-10.5zm95.3-16.3c-1.2-1.9-2.7-3.6-4.5-5.1s-3.8-2.6-6.1-3.4-4.6-1.2-7.1-1.2c-4.5 0-8.4.9-11.5 2.6-3.2 1.8-5.7 4.1-7.7 7s-3.4 6.3-4.3 10c-.9 3.8-1.3 7.6-1.3 11.6 0 3.8.4 7.6 1.3 11.2s2.3 6.9 4.3 9.8 4.5 5.2 7.7 7 7 2.6 11.5 2.6c6.1 0 10.9-1.9 14.4-5.6 3.5-3.8 5.6-8.7 6.3-14.8l19 3.7c-.5 5.7-1.4 7.2-3.5 11.8s-4.9 8.5-8.4 11.8c-3.5 3.2-7.6 5.7-12.3 7.4s-9.9 2.6-15.5 2.6c-7 0-13.3-1.2-18.9-3.6s-10.3-5.8-14.1-10c-3.8-4.3-6.8-9.3-8.8-15-2-5.8-3.1-12-3.1-18.6 0-6.8 1-13.2 3.1-19 2-5.8 5-10.9 8.8-15.3s8.6-7.8 14.1-10.2c5.6-2.5 11.9-3.7 18.9-3.7 5 0 9.8.7 14.3 2.2s8.5 3.6 12 6.3c3.5 2.8 6.5 6.2 8.8 10.3s3.7 7.2 3.7 9.2l-18.8 4.9c-.3-2.4-1.1-4.6-2.3-6.5zm36.1-9.4v-15h18.2v15h-18.2zm18.2 10.3V179h-18.2v-66.2l18.2.1zm48.8 0V125h-11.1v32.8c0 3.1.5 5.1 1.5 6.1s3.1 1.5 6.1 1.5c1 0 2 0 2.9-.1s1.8-.2 2.7-.4V179c-1.5.3-3.2.4-5.1.5s-3.7.1-5.5.1c-2.8 0-5.5-.2-8-.6s-4.7-1.1-6.7-2.2c-1.9-1.1-3.4-2.7-4.5-4.7s-1.7-4.7-1.7-8.1v-39h-11v-12.2h11V99.5l18.2-14v27.4h11.2zm39.6 89.8c-3.5 2.3-8.4 3.5-14.6 3.5-1.9 0-3.7-.1-5.6-.2-1.8-.1-5.6-.3-7.4-.5l3-14c1.7.2 13 4 16-3s1.3-12.3.8-13.6l-23.2-62.1h19.3l15 45.3h.3l14.5-45.3h18.8l-28.6 78.4c-2.1 5.4-4.8 9.2-8.3 11.5z" fill="#e98c3b"/><path d="M417.9 215.7v50.1h29.9v6.3h-37.4v-56.4h7.5zm65.8 53.8c-3.1 2.3-6.9 3.5-11.5 3.5-3.3 0-6.1-.5-8.5-1.6s-4.4-2.5-6-4.4-2.9-4.2-3.7-6.8-1.3-5.5-1.4-8.6c0-3.1.5-6 1.4-8.5.9-2.6 2.3-4.8 4-6.7s3.7-3.4 6.1-4.4c2.3-1.1 4.9-1.6 7.7-1.6 3.6 0 6.6.8 9 2.3s4.3 3.4 5.8 5.7c1.4 2.3 2.4 4.8 3 7.6.6 2.7.8 5.3.7 7.8h-30.6c-.1 1.8.2 3.5.6 5.1.5 1.6 1.2 3 2.3 4.3 1.1 1.2 2.4 2.2 4 3 1.6.7 3.6 1.1 5.8 1.1 2.8 0 5.2-.7 7-2s3-3.3 3.6-6h6.6c-.9 4.5-2.8 7.9-5.9 10.2zm-1.6-26.2c-.6-1.4-1.4-2.6-2.4-3.7-1-1-2.2-1.8-3.6-2.4s-2.9-.9-4.6-.9-3.3.3-4.7.9-2.6 1.4-3.6 2.5-1.8 2.3-2.4 3.7-.9 2.9-1 4.5h23.5c-.2-1.7-.6-3.2-1.2-4.6zM535 272c-1.2.7-2.8 1-4.8 1-1.7 0-3.1-.5-4.1-1.5s-1.5-2.6-1.5-4.8c-1.8 2.2-4 3.8-6.4 4.8s-5.1 1.5-7.9 1.5c-1.8 0-3.6-.2-5.3-.6s-3.1-1.1-4.3-2-2.2-2.1-2.9-3.5-1.1-3.2-1.1-5.3c0-2.3.4-4.2 1.2-5.7s1.8-2.7 3.1-3.6 2.8-1.6 4.4-2.1c1.7-.5 3.4-.9 5.1-1.2 1.8-.4 3.6-.6 5.3-.8s3.1-.4 4.4-.8c1.3-.3 2.3-.8 3-1.5s1.1-1.6 1.1-2.9c0-1.5-.3-2.7-.8-3.6-.6-.9-1.3-1.6-2.1-2.1-.9-.5-1.8-.8-2.9-.9-1.1-.2-2.1-.2-3.2-.2-2.8 0-5.2.5-7.1 1.6s-2.9 3.1-3.1 6.1h-6.7c.1-2.5.6-4.7 1.6-6.4.9-1.7 2.2-3.1 3.8-4.2s3.4-1.9 5.4-2.3c2-.5 4.2-.7 6.5-.7 1.8 0 3.7.1 5.5.4s3.5.8 4.9 1.6c1.5.8 2.7 2 3.6 3.4.9 1.5 1.3 3.4 1.3 5.8v21c0 1.6.1 2.7.3 3.5.2.7.8 1.1 1.9 1.1.6 0 1.3-.1 2.1-.3v5.2h-.3zm-10.9-20.9c-.8.6-1.9 1.1-3.3 1.4s-2.8.5-4.3.7l-4.5.6c-1.5.2-2.9.6-4.1 1.1s-2.2 1.3-3 2.2c-.8 1-1.1 2.3-1.1 4 0 1.1.2 2 .7 2.8.4.8 1 1.4 1.7 1.8.7.5 1.5.8 2.5 1 .9.2 1.9.3 3 .3 2.2 0 4.1-.3 5.7-.9s2.9-1.4 3.9-2.3 1.7-1.9 2.2-3 .7-2.1.7-3v-6.7h-.1zm24.8-19.8v8.6h.2c1.6-3.3 3.6-5.8 6-7.3 2.4-1.6 5.4-2.3 9-2.2v7.1c-2.7 0-5 .4-6.9 1.1s-3.4 1.8-4.6 3.2-2 3.1-2.5 5.2c-.5 2-.8 4.4-.8 7v18.2h-6.7v-40.8h6.3v-.1zm29.5 0v6.5h.2c2.8-4.9 7.2-7.4 13.3-7.4 2.7 0 4.9.4 6.7 1.1s3.2 1.8 4.3 3.1 1.9 2.9 2.3 4.7.7 3.8.7 6v26.9h-6.7v-27.6c0-2.5-.7-4.5-2.2-6s-3.5-2.2-6.1-2.2c-2.1 0-3.8.3-5.3.9s-2.8 1.5-3.8 2.7-1.8 2.5-2.3 4.1-.8 3.3-.8 5.1v23.1H572v-40.8h6.4v-.2zM618 224v-8.2h6.7v8.2H618zm6.7 7.3v40.8H618v-40.8h6.7zm18.4 0v6.5h.2c2.8-4.9 7.2-7.4 13.3-7.4 2.7 0 4.9.4 6.7 1.1s3.2 1.8 4.3 3.1 1.9 2.9 2.3 4.7.7 3.8.7 6v26.9h-6.7v-27.6c0-2.5-.7-4.5-2.2-6s-3.5-2.2-6.1-2.2c-2.1 0-3.8.3-5.3.9s-2.8 1.5-3.8 2.7-1.8 2.5-2.3 4.1-.8 3.3-.8 5.1v23.1h-6.7v-40.8h6.4v-.2zm69.8 52.4c-3.1 3.3-7.8 5-14.4 5-1.9 0-3.8-.2-5.8-.6s-3.8-1.1-5.4-2.1c-1.6-.9-2.9-2.2-4-3.7s-1.6-3.4-1.7-5.6h6.7c.1 1.2.4 2.2 1.1 3.1.7.8 1.6 1.5 2.6 2.1 1 .5 2.1.9 3.4 1.1 1.2.2 2.4.4 3.5.4 2.2 0 4.1-.4 5.6-1.1 1.5-.8 2.8-1.8 3.8-3.2 1-1.3 1.7-3 2.2-4.9.4-1.9.7-4 .7-6.2v-2.7h-.2c-1.2 2.5-2.9 4.4-5.3 5.6-2.3 1.2-4.8 1.8-7.5 1.8-3.1 0-5.7-.6-8-1.7s-4.2-2.6-5.7-4.5-2.7-4.1-3.4-6.6c-.8-2.5-1.1-5.1-1.1-7.9 0-2.4.3-4.9.9-7.5s1.7-4.9 3.2-7 3.4-3.8 5.8-5.1 5.4-2 8.9-2c2.6 0 5 .6 7.1 1.7 2.2 1.1 3.8 2.8 5.1 5.1h.1v-5.8h6.3v37.4c.1 6.6-1.5 11.6-4.5 14.9zm-8.6-18.4c1.6-.9 2.8-2.1 3.8-3.6.9-1.5 1.6-3.2 2.1-5.1.4-1.9.7-3.8.7-5.7 0-1.8-.2-3.6-.6-5.3s-1.1-3.3-2-4.7-2.1-2.5-3.6-3.4c-1.5-.8-3.3-1.3-5.4-1.3-2.2 0-4 .4-5.5 1.2s-2.8 1.9-3.8 3.3-1.7 2.9-2.1 4.7-.7 3.7-.7 5.6c0 1.8.2 3.7.6 5.5s1 3.5 1.9 5 2.1 2.7 3.6 3.6 3.3 1.4 5.5 1.4 4-.3 5.5-1.2zm77.7-41.9c-2.5-1.8-5.7-2.7-9.6-2.7-1.6 0-3.1.2-4.7.5s-2.9.8-4.1 1.6c-1.2.7-2.1 1.7-2.8 3-.7 1.2-1.1 2.8-1.1 4.6 0 1.7.5 3.1 1.5 4.2s2.4 2 4.1 2.6c1.7.7 3.6 1.3 5.8 1.7s4.4.9 6.6 1.5c2.2.5 4.4 1.1 6.6 1.9 2.2.7 4.1 1.7 5.8 2.9s3.1 2.7 4.1 4.6c1 1.8 1.5 4.2 1.5 7 0 3-.7 5.6-2 7.7s-3.1 3.9-5.2 5.2-4.5 2.3-7.1 2.9-5.2.9-7.8.9c-3.2 0-6.1-.4-9-1.2-2.8-.8-5.3-2-7.4-3.6s-3.8-3.7-5.1-6.2c-1.2-2.5-1.9-5.5-1.9-8.9h7.1c0 2.4.5 4.4 1.4 6.1s2.1 3.1 3.6 4.2 3.3 1.9 5.3 2.4 4.1.8 6.2.8c1.7 0 3.4-.2 5.1-.5s3.3-.9 4.6-1.6c1.4-.8 2.5-1.8 3.3-3.1s1.3-3 1.3-5.1c0-1.9-.5-3.5-1.5-4.7s-2.4-2.2-4.1-3-3.6-1.4-5.8-1.9l-6.6-1.5c-2.2-.5-4.4-1.1-6.6-1.7-2.2-.7-4.1-1.5-5.8-2.6s-3.1-2.5-4.1-4.2-1.5-3.9-1.5-6.4c0-2.8.6-5.3 1.7-7.4 1.2-2.1 2.7-3.8 4.6-5.1s4.1-2.3 6.6-3c2.4-.7 5-1 7.5-1 2.9 0 5.6.3 8.1 1s4.6 1.8 6.5 3.2c1.9 1.5 3.3 3.3 4.4 5.6 1.1 2.2 1.7 4.9 1.8 8h-7.1c-.2-3.9-1.7-6.8-4.2-8.7zm22.5 20c.8-2.6 2.1-4.9 3.8-6.8s3.8-3.4 6.2-4.5 5.3-1.7 8.5-1.7c3.3 0 6.1.6 8.6 1.7 2.4 1.1 4.5 2.6 6.2 4.5s2.9 4.2 3.8 6.8c.8 2.6 1.3 5.4 1.3 8.4s-.4 5.8-1.3 8.4c-.8 2.6-2.1 4.8-3.8 6.8-1.7 1.9-3.8 3.4-6.2 4.5s-5.3 1.6-8.6 1.6c-3.2 0-6.1-.5-8.5-1.6s-4.6-2.6-6.2-4.5c-1.7-1.9-3-4.2-3.8-6.8s-1.3-5.4-1.3-8.4.5-5.8 1.3-8.4zm6.9 15c.7 1.9 1.6 3.5 2.7 4.8 1.2 1.3 2.5 2.3 4.1 3s3.2 1 4.9 1 3.4-.3 4.9-1c1.6-.7 2.9-1.7 4.1-3s2.1-2.9 2.7-4.8c.7-1.9 1-4.1 1-6.6s-.3-4.7-1-6.6-1.6-3.5-2.7-4.9c-1.2-1.3-2.5-2.3-4.1-3s-3.2-1-4.9-1-3.4.3-4.9 1c-1.6.7-2.9 1.7-4.1 3s-2.1 2.9-2.7 4.9c-.7 1.9-1 4.1-1 6.6 0 2.4.3 4.6 1 6.6zm48.1-42.7v56.4h-6.7v-56.4h6.7zm39.5 56.4v-6.5h-.2c-1.4 2.5-3.2 4.4-5.5 5.6-2.2 1.2-4.8 1.8-7.8 1.8-2.7 0-4.9-.4-6.7-1.1s-3.2-1.7-4.3-3-1.9-2.9-2.3-4.7-.7-3.8-.7-6v-26.9h6.7V259c0 2.5.7 4.5 2.2 6s3.5 2.2 6.1 2.2c2.1 0 3.8-.3 5.3-.9s2.8-1.5 3.8-2.7 1.8-2.5 2.3-4.1.8-3.3.8-5.1v-23.1h6.7v40.8H899zm35.5-40.8v5.9h-8.1v25.4c0 .8.1 1.4.2 1.9s.4.8.8 1.1.9.4 1.5.5c.7.1 1.5.1 2.6.1h3.1v5.9h-5.1c-1.7 0-3.2-.1-4.5-.4s-2.2-.7-3-1.3-1.3-1.5-1.7-2.7-.6-2.7-.6-4.6v-26h-7v-5.9h7V219h6.7v12.2l8.1.1zm9.4-7.3v-8.2h6.7v8.2h-6.7zm6.7 7.3v40.8h-6.7v-40.8h6.7zm11.1 12.1c.8-2.6 2.1-4.9 3.8-6.8s3.8-3.4 6.2-4.5 5.3-1.7 8.5-1.7c3.3 0 6.1.6 8.6 1.7 2.4 1.1 4.5 2.6 6.2 4.5s2.9 4.2 3.8 6.8c.8 2.6 1.3 5.4 1.3 8.4s-.4 5.8-1.3 8.4c-.8 2.6-2.1 4.8-3.8 6.8-1.7 1.9-3.8 3.4-6.2 4.5s-5.3 1.6-8.6 1.6c-3.2 0-6.1-.5-8.5-1.6s-4.6-2.6-6.2-4.5c-1.7-1.9-3-4.2-3.8-6.8s-1.3-5.4-1.3-8.4.4-5.8 1.3-8.4zm6.8 15c.7 1.9 1.6 3.5 2.7 4.8 1.2 1.3 2.5 2.3 4.1 3s3.2 1 4.9 1 3.4-.3 4.9-1c1.6-.7 2.9-1.7 4.1-3s2.1-2.9 2.7-4.8c.7-1.9 1-4.1 1-6.6s-.3-4.7-1-6.6-1.6-3.5-2.7-4.9c-1.2-1.3-2.5-2.3-4.1-3s-3.2-1-4.9-1-3.4.3-4.9 1c-1.6.7-2.9 1.7-4.1 3s-2.1 2.9-2.7 4.9c-.7 1.9-1 4.1-1 6.6 0 2.4.3 4.6 1 6.6zm47.3-27.1v6.5h.2c2.8-4.9 7.2-7.4 13.3-7.4 2.7 0 4.9.4 6.7 1.1s3.2 1.8 4.3 3.1 1.9 2.9 2.3 4.7.7 3.8.7 6v26.9h-6.7v-27.6c0-2.5-.7-4.5-2.2-6s-3.5-2.2-6.1-2.2c-2.1 0-3.8.3-5.3.9s-2.8 1.5-3.8 2.7-1.8 2.5-2.3 4.1-.8 3.3-.8 5.1v23.1h-6.7v-40.8h6.4v-.2zm44.4 31.7c.6 1 1.5 1.8 2.5 2.4s2.2 1 3.5 1.3 2.6.4 4 .4c1.1 0 2.2-.1 3.3-.2 1.2-.2 2.2-.4 3.2-.9 1-.4 1.8-1 2.4-1.9.6-.8.9-1.9.9-3.1 0-1.7-.7-3.1-2-3.9-1.3-.9-3-1.6-4.9-2.2-2-.6-4.1-1.1-6.4-1.5s-4.5-1.1-6.4-1.9c-2-.8-3.6-2-4.9-3.4-1.3-1.5-2-3.5-2-6.2 0-2.1.5-3.8 1.4-5.3s2.1-2.7 3.6-3.6c1.4-.9 3.1-1.6 4.9-2.1 1.8-.4 3.6-.7 5.4-.7 2.3 0 4.4.2 6.4.6 1.9.4 3.7 1.1 5.2 2.1s2.7 2.3 3.6 4 1.4 3.7 1.6 6.2h-6.7c-.1-1.3-.4-2.4-1-3.3s-1.3-1.6-2.2-2.1-1.9-.9-3-1.1-2.2-.4-3.3-.4c-1 0-2 .1-3 .2-1 .2-2 .4-2.8.8s-1.5.9-2.1 1.6c-.5.7-.8 1.5-.8 2.6 0 1.2.4 2.1 1.2 2.9s1.9 1.4 3.1 1.9c1.3.5 2.7.9 4.3 1.3 1.6.3 3.2.7 4.7 1.1 1.7.4 3.3.8 4.9 1.3s3 1.2 4.3 2.1c1.2.9 2.2 2 3 3.3s1.1 3 1.1 4.9c0 2.5-.5 4.5-1.5 6.2-1 1.6-2.4 3-4 4-1.7 1-3.5 1.7-5.6 2.1s-4.1.6-6.2.6c-2.3 0-4.4-.2-6.5-.7s-3.9-1.3-5.5-2.3c-1.6-1.1-2.8-2.5-3.8-4.3-.9-1.8-1.5-3.9-1.6-6.4h6.7c0 1.3.3 2.6 1 3.6z" fill="#333"/><path d="M372 64h2v229h-2V64z" fill="#d6d8d8"/></svg>